<svg width="170" height="170" viewBox="0 0 170 170" fill="none" xmlns="http://www.w3.org/2000/svg">
<path d="M31.213 0H138.422C146.7 0 154.639 3.2885 160.493 9.14208C166.346 14.9956 169.635 22.9348 169.635 31.213V138.422C169.635 146.7 166.347 154.639 160.493 160.492C154.64 166.346 146.701 169.634 138.423 169.634H31.212C22.9341 169.634 14.9952 166.346 9.14178 160.492C3.2884 154.639 0 146.7 0 138.422L0 31.213C0 22.9348 3.2885 14.9956 9.14208 9.14208C14.9956 3.2885 22.9348 0 31.213 0Z" fill="white"/>
<path fill-rule="evenodd" clip-rule="evenodd" d="M56.38 64.862C56.7013 64.142 57.0476 63.4363 57.419 62.745C60.3553 57.2919 64.808 52.8059 70.239 49.829C72.1015 48.8109 74.0617 47.9828 76.09 47.357C80.1697 46.1023 84.4585 45.6726 88.706 46.093C90.8187 46.3019 92.9049 46.7233 94.933 47.351C99.8881 48.8828 104.395 51.5998 108.063 55.2663C111.731 58.9329 114.45 63.4386 115.984 68.393C116.129 68.8643 116.263 69.341 116.384 69.823C116.524 70.3903 116.845 70.8967 117.298 71.2656C117.751 71.6345 118.312 71.8459 118.896 71.868C125.651 72.1933 132.011 75.1469 136.618 80.098C141.225 85.0491 143.714 91.6052 143.552 98.3662C143.391 105.127 140.592 111.557 135.755 116.283C130.917 121.008 124.423 123.655 117.66 123.658H93.66C92.16 123.658 85.988 123.737 82.633 123.658C83.486 119.426 102.914 118.432 104.417 118.432L117.655 118.199C120.358 118.226 123.039 117.717 125.543 116.701C128.048 115.685 130.326 114.183 132.247 112.281C134.167 110.38 135.692 108.116 136.732 105.622C137.773 103.128 138.308 100.452 138.308 97.749C138.308 95.0463 137.773 92.3704 136.732 89.8761C135.692 87.3817 134.167 85.1182 132.247 83.2166C130.326 81.315 128.048 79.8129 125.543 78.7972C123.039 77.7815 120.358 77.2723 117.655 77.299C106.169 77.299 98.245 87.787 90.126 98.533C80.753 110.938 71.142 123.659 54.901 123.659C47.4145 123.632 40.2368 120.671 34.9092 115.412C29.5816 110.152 26.5287 103.013 26.4062 95.5273C26.2837 88.0417 29.1012 80.8065 34.2538 75.3752C39.4065 69.9439 46.4834 66.7496 53.965 66.478C54.4782 66.4669 54.9774 66.3083 55.4029 66.0212C55.8285 65.7342 56.1625 65.3307 56.365 64.859L56.38 64.862ZM110.785 70.005V69.995C109.765 66.6839 108.1 63.6074 105.885 60.943C102.599 56.9941 98.2409 54.0803 93.336 52.553C91.6557 52.0323 89.9273 51.6819 88.177 51.507C84.6478 51.1575 81.0845 51.5148 77.695 52.558C74.3842 53.5788 71.3079 55.244 68.643 57.458C66.3953 59.3397 64.4679 61.5737 62.936 64.073C62.728 64.414 60.746 67.311 62.346 69.745C63.709 71.825 66.316 73.045 67.872 73.668C70.816 74.846 80.085 74.94 79.514 75.511C78.991 76.034 74.603 76.565 69.948 75.991C66.448 75.561 56.906 74.237 54.57 75.511C52.234 76.785 40.085 95.39 47.481 101.248C55.333 107.47 73.846 97.548 80.256 92.085C89.035 83.826 99.669 76.885 109.131 73.365C109.784 73.1224 110.319 72.639 110.627 72.0142C110.934 71.3893 110.991 70.6703 110.785 70.005Z" fill="#262934"/>
</svg>
